<?xml version="1.0" encoding="UTF-8"?>
<svg id="_레이어_1" xmlns="http://www.w3.org/2000/svg" version="1.1" viewBox="0 0 256 63.3">
  <!-- Generator: Adobe Illustrator 30.4.0, SVG Export Plug-In . SVG Version: 2.1.4 Build 226)  -->
  <defs>
    <style>
      .st0 {
        fill: #0b51c3;
      }
    </style>
  </defs>
  <path class="st0" d="M51,12.2c9.9,13.3,7.4,34.8-5.5,44.5-6,4.5-13.2,6.5-20.7,6.5H0S0,0,0,0h27.6c9.4.2,17.7,4.8,23.4,12.1h0ZM39.8,50.3c5.5-4.7,7.9-11,8.3-18,.6-12.7-8.7-23.5-21.7-24.1H8.6c0-.1,0,47.3,0,47.3h14.9c5.9,0,11.4-1.5,16.2-5.1Z"/>
  <g>
    <path class="st0" d="M203.2,0l20.8,24.9c6.7-7.4,12.3-15.3,16.2-24.8h15.8c-3.5,8.8-8.6,16.2-14.6,23.3l-10.2,10.2,24.6,29.5h-11.4c0,.1-20.1-24-20.1-24-19,14-41.4,21.6-64.6,24.1h-11.3V.1c7.4,0,14.2-.2,21.3.1,4.5.2,8.7,1.6,12,4.2,4.9,4,6.9,10,5.8,16.2-1.8,10.3-9.6,14.4-19.7,14.7h-11v24.4c22.1-4.7,43.6-13.9,60.8-28.7L191.9.2l11.3-.2h0ZM176.6,24.7c2.9-4.3,2.9-9.6-.2-13.6-4.6-4.2-12.7-3-19.6-3.3v20.1l12.1-.2c2.8,0,5.4-1.2,7.6-3h0Z"/>
    <polygon class="st0" points="98.9 35.2 71.9 35.3 71.9 55.4 100.3 55.4 100.3 63.2 63.3 63.2 63.3 0 99.5 0 99.5 8 71.9 8 71.9 27.4 98.9 27.4 98.9 35.2"/>
    <polygon class="st0" points="141.4 35.2 114.6 35.3 114.6 55.4 142.8 55.4 142.7 63.2 105.9 63.2 105.9 0 142.2 0 142.2 8 114.6 8.1 114.6 27.4 141.4 27.4 141.4 35.2"/>
  </g>
</svg>